<?xml version="1.0" standalone="no"?>
<!DOCTYPE svg PUBLIC "-//W3C//DTD SVG 20010904//EN"
 "http://www.w3.org/TR/2001/REC-SVG-20010904/DTD/svg10.dtd">
<svg version="1.0" xmlns="http://www.w3.org/2000/svg"
 width="942.904663pt" height="985.770517pt" viewBox="0 0 942.904663 985.770517"
 preserveAspectRatio="xMidYMid meet">
<metadata>
Created by potrace 1.16, written by Peter Selinger 2001-2019
</metadata>
<g transform="translate(-15.568608,1003.798129) scale(0.100000,-0.100000)"
fill="#0c1e33" stroke="none">
<path d="M4540 10025 c-85 -7 -191 -18 -235 -24 -44 -6 -111 -15 -150 -21 -38
-5 -90 -13 -115 -18 -25 -5 -81 -17 -125 -26 -44 -9 -97 -21 -117 -26 -21 -6
-55 -14 -75 -20 -172 -44 -459 -140 -570 -191 -24 -10 -45 -19 -48 -19 -20 0
-364 -169 -473 -232 -48 -28 -100 -58 -117 -68 -202 -116 -526 -356 -740 -549
-104 -94 -315 -310 -414 -426 -184 -214 -364 -466 -512 -714 -59 -98 -230
-433 -282 -551 -61 -140 -140 -355 -187 -510 -12 -41 -26 -86 -31 -100 -41
-117 -121 -495 -149 -700 -36 -266 -44 -398 -44 -720 -1 -326 2 -380 39 -685
25 -205 94 -552 134 -675 5 -14 14 -45 21 -70 7 -25 20 -65 28 -90 8 -25 18
-58 22 -75 4 -16 22 -68 40 -115 17 -47 38 -105 47 -130 43 -123 210 -482 296
-635 273 -485 609 -908 997 -1255 52 -47 97 -87 100 -90 17 -19 223 -180 320
-250 416 -301 930 -551 1420 -690 25 -7 56 -16 70 -20 40 -13 250 -61 310 -71
30 -5 80 -14 110 -19 84 -16 191 -30 350 -45 169 -17 650 -20 785 -5 220 25
285 33 365 47 47 8 108 18 135 23 58 10 269 58 305 70 14 4 45 13 70 20 130
36 413 136 535 190 22 9 60 26 84 36 117 50 342 169 506 267 647 390 1237 987
1631 1652 32 55 67 114 77 130 10 17 62 120 117 230 137 277 245 555 319 820
17 61 35 124 40 140 9 30 22 86 40 168 41 179 70 363 103 637 17 143 17 839 0
975 -7 55 -17 136 -23 180 -12 95 -46 302 -59 363 -6 23 -14 61 -19 85 -56
255 -166 609 -246 792 -8 17 -23 54 -35 84 -43 110 -178 387 -239 489 -17 29
-31 54 -31 56 0 20 -254 402 -351 529 -190 249 -428 504 -653 701 -119 104
-180 154 -316 256 -147 110 -324 225 -505 327 -78 44 -340 175 -385 193 -19 7
-57 24 -85 36 -120 53 -440 161 -607 204 -21 6 -55 14 -75 20 -143 36 -387 79
-573 99 -292 33 -551 37 -830 16z m705 -76 c275 -27 283 -29 499 -70 95 -18
215 -47 334 -80 17 -5 47 -13 65 -18 241 -66 666 -245 912 -384 521 -294 934
-639 1339 -1117 252 -298 537 -759 699 -1130 8 -19 24 -56 36 -82 55 -123 162
-425 202 -573 99 -365 153 -674 180 -1025 13 -171 7 -685 -10 -855 -14 -131
-43 -344 -60 -425 -5 -25 -14 -72 -20 -105 -11 -59 -48 -212 -91 -369 -22 -84
-85 -278 -100 -311 -5 -11 -16 -40 -24 -65 -8 -25 -21 -61 -29 -80 -8 -19 -27
-64 -42 -100 -333 -795 -876 -1495 -1550 -1999 -131 -98 -309 -221 -320 -221
-4 0 -25 -13 -48 -29 -23 -16 -59 -38 -80 -50 -20 -11 -54 -31 -74 -42 -181
-104 -448 -224 -708 -319 -119 -44 -383 -119 -522 -149 -126 -27 -155 -32
-273 -50 -261 -41 -330 -46 -690 -46 -360 0 -429 5 -690 46 -375 58 -799 182
-1130 331 -261 117 -624 325 -800 458 -19 15 -62 46 -95 71 -603 444 -1172
1154 -1484 1852 -11 26 -30 66 -40 90 -84 187 -207 542 -252 730 -5 20 -13 54
-18 75 -95 392 -141 779 -141 1197 0 198 16 486 35 620 3 22 10 74 16 115 13
96 46 277 64 355 33 144 47 202 56 230 5 17 23 77 40 135 32 108 65 209 79
245 5 11 22 56 39 101 198 531 519 1062 913 1509 158 179 428 430 639 595 432
337 944 603 1469 762 364 110 797 183 1145 191 156 4 420 -3 530 -14z"/>
<path d="M4610 9820 c-304 -17 -643 -73 -905 -150 -38 -12 -99 -29 -135 -39
-36 -11 -103 -33 -150 -51 -47 -17 -96 -35 -110 -40 -14 -4 -51 -19 -83 -34
-32 -14 -60 -26 -62 -26 -6 0 -101 -43 -205 -93 -215 -102 -520 -289 -730
-447 -324 -242 -683 -602 -914 -915 -118 -160 -134 -182 -202 -290 -170 -267
-321 -562 -419 -815 -20 -52 -41 -104 -45 -115 -5 -11 -18 -49 -30 -85 -12
-36 -25 -74 -30 -85 -9 -21 -43 -132 -61 -200 -6 -22 -14 -53 -19 -70 -40
-144 -98 -443 -119 -615 -6 -47 -16 -125 -23 -175 -17 -125 -17 -808 0 -935 7
-52 17 -133 23 -180 20 -169 77 -461 119 -610 68 -246 143 -464 226 -662 56
-133 202 -424 262 -522 23 -37 42 -70 42 -73 0 -2 44 -70 97 -151 262 -395
533 -701 893 -1011 120 -102 401 -311 419 -311 5 0 11 -3 13 -7 3 -9 145 -98
253 -161 135 -77 385 -197 550 -262 64 -26 185 -70 215 -79 19 -6 70 -22 113
-36 119 -38 373 -101 467 -115 30 -5 93 -15 140 -23 47 -9 141 -20 210 -27 69
-6 169 -15 223 -21 126 -12 363 -12 480 1 51 5 151 14 222 20 72 6 153 15 180
20 28 5 79 14 115 20 104 18 326 70 435 101 179 51 392 124 410 140 5 5 15 9
22 9 7 0 36 11 65 24 29 13 76 34 103 46 219 97 565 294 720 409 28 21 86 64
130 97 327 242 680 596 921 924 132 180 170 237 288 433 185 309 395 798 483
1127 66 250 96 386 123 560 26 172 30 200 42 310 19 178 16 809 -5 985 -29
237 -34 272 -66 452 -14 78 -69 301 -91 373 -4 14 -18 59 -30 100 -29 101 -44
145 -86 259 -37 102 -40 110 -73 183 -12 26 -21 50 -21 52 0 6 -94 209 -128
276 -322 634 -778 1184 -1342 1616 -73 56 -268 194 -275 194 -2 0 -24 13 -48
30 -82 55 -292 172 -422 235 -153 73 -191 90 -380 166 -103 41 -357 119 -515
158 -375 92 -859 134 -1280 111z m695 -136 c72 -8 157 -18 190 -24 33 -5 87
-14 120 -19 58 -9 73 -12 163 -32 263 -58 568 -157 792 -256 84 -37 329 -159
375 -186 28 -16 64 -38 80 -47 203 -117 387 -248 595 -419 106 -88 387 -360
491 -476 189 -211 420 -538 571 -810 90 -161 278 -566 278 -598 0 -7 4 -17 8
-23 4 -5 14 -27 21 -49 7 -22 16 -49 21 -60 35 -81 114 -360 160 -570 5 -22
12 -51 15 -65 3 -14 10 -52 15 -85 5 -33 14 -89 20 -125 29 -170 60 -548 60
-730 0 -192 -29 -550 -60 -740 -6 -36 -15 -92 -20 -125 -5 -33 -12 -71 -15
-85 -3 -14 -10 -43 -15 -65 -48 -215 -125 -481 -195 -665 -388 -1030 -1128
-1891 -2065 -2403 -63 -35 -248 -127 -300 -149 -19 -9 -51 -23 -70 -31 -222
-97 -499 -184 -820 -257 -64 -14 -269 -46 -380 -59 -373 -44 -874 -27 -1215
40 -27 5 -75 14 -105 20 -70 14 -218 48 -250 59 -14 4 -43 13 -65 19 -83 23
-181 53 -200 61 -11 5 -40 16 -65 24 -25 8 -81 28 -125 46 -776 308 -1459 842
-1961 1535 -58 80 -194 282 -194 289 0 2 -19 35 -42 72 -92 151 -229 426 -290
579 -11 28 -25 64 -33 80 -34 78 -116 319 -142 415 -55 205 -68 261 -94 390
-17 80 -34 177 -39 215 -54 414 -67 668 -51 943 25 418 78 752 170 1072 5 19
14 51 19 70 20 76 123 370 152 435 10 22 25 58 34 80 40 96 55 129 132 280
345 680 823 1234 1453 1682 64 45 127 88 141 95 14 7 51 29 82 50 31 21 59 38
62 38 2 0 42 22 88 48 139 80 353 182 508 241 47 18 94 37 105 41 38 17 201
69 305 98 89 25 163 43 320 78 25 6 54 11 230 38 114 17 305 36 415 40 144 6
487 -5 620 -20z"/>
<path d="M4535 9520 c-318 -28 -662 -99 -951 -195 -226 -76 -558 -222 -714
-315 -30 -18 -64 -38 -75 -44 -113 -60 -389 -251 -500 -344 -11 -9 -45 -37
-75 -62 -278 -227 -609 -595 -827 -920 -117 -174 -309 -526 -382 -700 -79
-189 -132 -335 -190 -525 -20 -67 -27 -90 -50 -182 -6 -24 -15 -60 -21 -80
-34 -133 -75 -388 -101 -636 -15 -141 -15 -670 0 -817 53 -528 160 -953 362
-1430 32 -75 200 -406 231 -455 14 -22 52 -83 84 -135 94 -153 235 -346 372
-510 107 -129 366 -388 482 -484 52 -43 106 -88 120 -100 79 -67 390 -286 405
-286 4 0 19 -8 33 -19 15 -10 44 -28 65 -40 20 -11 54 -31 75 -42 95 -54 392
-199 407 -199 3 0 24 -8 48 -19 85 -38 274 -105 372 -132 170 -48 301 -79 415
-99 36 -6 85 -15 110 -20 45 -9 150 -21 348 -40 306 -30 852 8 1147 80 22 5
81 19 130 30 167 39 433 126 552 181 24 10 45 19 48 19 29 0 384 181 545 278
141 85 427 288 505 359 11 10 41 36 65 57 215 188 391 371 554 576 129 162
241 319 294 411 11 19 43 72 71 119 98 162 236 449 316 655 28 74 105 302 124
370 6 22 19 72 30 110 54 192 103 465 121 670 6 61 12 117 15 125 10 24 13
559 4 675 -15 213 -32 354 -63 530 -16 91 -23 120 -71 320 -24 100 -94 330
-115 380 -4 11 -13 36 -20 55 -7 19 -16 45 -21 58 -5 12 -13 32 -18 45 -10 25
-54 131 -83 197 -47 110 -194 390 -240 457 -15 23 -28 44 -28 48 0 10 -160
245 -224 330 -348 460 -764 838 -1226 1115 -468 282 -1034 484 -1535 550 -49
6 -117 16 -150 21 -80 14 -644 20 -770 9z m633 -70 c53 -6 144 -15 202 -21 58
-6 123 -15 145 -19 22 -5 69 -14 105 -20 68 -12 297 -66 340 -80 14 -4 45 -13
70 -20 334 -93 779 -306 1110 -531 235 -160 404 -301 625 -523 337 -339 606
-716 817 -1146 76 -154 118 -247 118 -259 0 -4 7 -22 15 -38 17 -35 69 -175
92 -248 9 -27 24 -75 34 -105 19 -58 41 -136 65 -235 8 -33 19 -76 24 -95 5
-19 14 -64 20 -100 6 -36 15 -83 20 -105 5 -22 13 -74 19 -115 6 -41 13 -93
16 -115 44 -303 44 -880 1 -1130 -3 -16 -10 -68 -16 -115 -6 -47 -15 -103 -20
-125 -5 -22 -13 -67 -20 -100 -29 -157 -100 -419 -150 -560 -28 -77 -100 -266
-115 -300 -7 -16 -23 -52 -35 -80 -12 -27 -54 -115 -94 -195 -249 -496 -617
-968 -1031 -1321 -22 -19 -49 -42 -60 -52 -100 -92 -394 -296 -580 -403 -249
-144 -611 -304 -800 -354 -16 -5 -77 -22 -135 -39 -185 -55 -368 -90 -685
-133 -121 -16 -672 -16 -790 1 -199 27 -243 33 -315 47 -141 25 -265 54 -370
85 -58 17 -118 34 -135 39 -222 62 -581 223 -850 383 -602 356 -1173 939
-1510 1542 -69 124 -93 168 -131 245 -107 216 -176 393 -274 695 -8 27 -27 96
-51 185 -5 19 -14 58 -20 85 -6 28 -15 68 -20 90 -5 22 -13 65 -19 95 -5 30
-14 82 -20 115 -50 269 -75 788 -50 1047 20 204 31 304 40 358 28 172 47 269
60 320 5 19 16 64 25 100 8 36 29 112 46 170 17 58 33 117 36 133 3 15 9 30
14 33 5 3 9 12 9 21 0 15 85 240 121 320 10 24 19 45 19 48 0 7 152 312 178
358 12 20 30 52 41 70 50 88 86 146 161 257 45 66 87 129 95 138 8 9 32 41 53
70 155 209 431 498 662 693 119 100 386 293 481 347 19 11 75 43 124 72 79 46
304 158 405 203 102 45 329 129 400 149 19 5 49 13 65 18 77 22 275 72 320 80
206 37 298 50 485 69 123 12 505 13 618 1z"/>
<path d="M4758 9353 c-2 -5 -1 -78 2 -163 5 -147 6 -155 25 -155 22 0 21 -13
17 210 -2 106 -3 115 -21 115 -11 0 -21 -3 -23 -7z"/>
<path d="M4890 9348 c1 -7 14 -51 31 -98 16 -47 39 -112 50 -145 11 -32 25
-63 32 -67 21 -13 47 -9 53 10 8 22 21 53 79 185 36 82 45 111 36 120 -8 8
-15 8 -25 -3 -15 -15 -106 -223 -106 -240 0 -27 -20 -4 -35 38 -70 206 -70
207 -93 210 -13 2 -22 -2 -22 -10z"/>
<path d="M4474 9213 c4 -71 10 -143 13 -160 l5 -33 67 1 c93 0 146 11 146 29
0 12 -15 14 -81 11 l-81 -3 -6 28 c-4 16 -10 80 -13 142 -7 111 -7 112 -32
112 l-24 0 6 -127z"/>
<path d="M5337 9322 c-8 -9 -42 -71 -77 -137 -34 -66 -66 -124 -71 -129 -17
-19 -10 -37 13 -34 14 2 31 18 45 43 l22 40 58 -3 c63 -4 93 -25 93 -67 0 -28
24 -49 46 -41 11 4 14 12 9 24 -4 9 -18 62 -31 117 -40 163 -49 188 -72 196
-14 5 -25 2 -35 -9z m40 -108 c21 -80 19 -86 -24 -79 -65 11 -64 9 -35 74 15
33 31 59 37 57 5 -1 15 -25 22 -52z"/>
<path d="M4183 9258 c7 -68 38 -272 42 -276 5 -6 193 21 206 29 7 4 9 14 6 22
-6 16 -54 15 -123 -3 -17 -4 -36 -5 -41 -1 -6 3 -13 31 -16 61 -14 116 -25
189 -32 199 -3 6 -15 11 -27 11 -18 0 -19 -5 -15 -42z"/>
<path d="M5590 9238 c-6 -29 -16 -75 -22 -103 -5 -27 -14 -66 -19 -86 -14 -56
-11 -79 9 -79 19 0 30 37 54 178 7 40 17 71 22 69 6 -2 32 -59 59 -128 66
-168 67 -169 93 -169 16 0 25 7 29 23 24 112 53 263 54 285 1 6 -8 12 -19 12
-14 0 -21 -9 -25 -37 -18 -107 -37 -182 -49 -185 -7 -3 -21 28 -79 182 -25 67
-43 90 -73 90 -18 0 -24 -8 -34 -52z"/>
<path d="M4024 9265 c-6 -16 7 -94 27 -159 27 -88 -4 -146 -78 -146 -31 0 -44
5 -55 23 -16 23 -17 28 -43 147 -9 41 -18 81 -20 87 -6 18 -51 -1 -46 -19 2
-7 11 -52 22 -100 21 -100 39 -147 63 -167 21 -18 103 -18 137 -1 52 27 69 51
69 99 0 42 -18 142 -38 215 -9 34 -29 45 -38 21z"/>
<path d="M3577 9149 c-50 -12 -85 -36 -103 -70 -21 -41 -17 -63 14 -94 26 -27
29 -27 108 -22 106 8 124 3 124 -34 0 -60 -87 -96 -154 -64 -55 27 -86 6 -46
-30 51 -46 175 -23 230 43 37 45 38 71 5 106 -25 27 -28 27 -120 24 -80 -2
-97 0 -112 15 -16 16 -16 20 -3 44 9 15 33 34 54 42 34 13 41 13 70 -3 51 -27
90 -2 44 28 -33 21 -67 26 -111 15z"/>
<path d="M6221 9103 c-70 -14 -121 -89 -121 -179 0 -75 23 -114 84 -142 54
-26 72 -27 118 -8 50 21 66 43 46 62 -13 14 -19 13 -53 -10 -45 -31 -60 -32
-102 -6 -21 12 -35 31 -42 55 -19 69 32 170 95 189 44 13 114 -36 114 -80 0
-12 6 -27 14 -33 20 -17 35 7 29 46 -6 36 -71 103 -101 103 -9 0 -26 2 -37 4
-11 2 -31 2 -44 -1z"/>
<path d="M3088 8937 c-54 -29 -98 -56 -98 -60 0 -5 14 -39 31 -75 17 -37 47
-100 66 -140 25 -55 38 -72 49 -68 9 3 18 6 20 6 10 0 2 30 -22 78 -14 29 -23
59 -20 67 3 8 30 26 61 40 30 14 55 32 55 40 0 22 -22 18 -85 -14 l-56 -29
-22 45 c-13 27 -18 48 -12 50 45 17 150 82 150 93 0 24 -19 19 -117 -33z"/>
<path d="M6497 8929 c-134 -110 -79 -309 85 -309 87 0 157 82 158 185 0 123
-151 200 -243 124z m142 -23 c68 -36 65 -144 -6 -218 -50 -52 -145 -24 -158
46 -10 49 12 115 50 153 36 36 69 42 114 19z"/>
<path d="M4685 8919 c-148 -6 -277 -19 -385 -39 -30 -6 -80 -14 -111 -19 -140
-23 -433 -109 -618 -183 -590 -234 -1110 -623 -1516 -1133 -196 -246 -390
-565 -498 -815 -8 -19 -22 -51 -30 -70 -8 -19 -27 -66 -42 -105 -15 -38 -31
-79 -35 -90 -15 -33 -68 -196 -85 -260 -32 -117 -35 -130 -46 -175 -21 -92
-31 -142 -58 -305 -32 -191 -44 -351 -44 -625 0 -167 5 -324 12 -380 43 -334
75 -500 140 -725 40 -141 110 -335 158 -445 274 -621 686 -1152 1188 -1531
104 -79 310 -219 321 -219 3 0 18 -8 32 -18 149 -104 564 -286 802 -352 25 -7
56 -16 70 -20 62 -20 255 -61 370 -79 36 -6 99 -16 140 -23 106 -18 713 -17
840 0 103 15 279 46 348 62 23 6 63 15 90 21 26 6 58 14 72 19 14 4 45 13 70
20 82 23 234 77 348 124 623 255 1157 682 1590 1273 145 197 343 561 442 813
82 206 159 467 200 675 6 33 16 78 20 100 5 22 13 76 19 120 6 44 16 123 23
175 17 125 17 673 0 795 -7 50 -17 126 -23 170 -6 44 -15 100 -20 125 -5 25
-17 81 -25 125 -33 163 -56 249 -113 421 -43 132 -64 188 -92 251 -10 24 -19
45 -19 48 0 10 -63 145 -121 258 -93 183 -174 315 -333 541 -119 168 -447 516
-616 652 -159 128 -405 303 -460 327 -8 4 -37 20 -65 37 -46 28 -264 137 -345
173 -207 92 -539 195 -730 228 -329 57 -556 72 -865 58z m525 -130 c180 -21
341 -47 380 -59 14 -5 50 -14 80 -20 118 -25 364 -104 499 -161 600 -252 1112
-654 1503 -1180 46 -63 96 -132 110 -154 14 -22 46 -72 72 -112 25 -40 46 -75
46 -77 0 -3 13 -27 28 -53 65 -111 162 -312 209 -433 14 -36 29 -74 34 -85 14
-34 87 -256 105 -320 34 -126 67 -286 93 -450 6 -38 16 -104 23 -145 17 -104
17 -744 0 -865 -83 -590 -211 -979 -482 -1470 -86 -156 -283 -431 -429 -600
-85 -98 -337 -338 -446 -426 -477 -380 -967 -606 -1565 -720 -296 -56 -743
-65 -1070 -19 -520 72 -995 255 -1450 560 -679 455 -1202 1163 -1446 1960 -25
80 -49 162 -54 183 -22 85 -29 115 -40 172 -6 33 -16 78 -20 100 -5 22 -14 81
-21 130 -6 50 -15 115 -21 145 -15 88 -21 560 -9 705 18 213 33 317 80 540 41
200 131 488 197 633 13 29 24 54 24 57 0 11 108 231 161 328 84 151 241 386
357 532 119 149 401 432 547 548 108 87 321 235 420 292 28 16 64 37 80 47 54
31 272 137 327 159 29 11 69 27 88 36 212 92 525 172 840 214 178 24 584 29
750 8z"/>
<path d="M4709 8633 c-4 -43 4 -271 11 -288 17 -44 50 -65 103 -65 101 0 117
29 117 220 0 134 -1 140 -20 140 -20 0 -20 -5 -18 -139 2 -125 1 -141 -16
-160 -25 -27 -86 -29 -110 -2 -13 14 -17 45 -21 147 -3 71 -5 135 -5 142 0 13
-39 17 -41 5z"/>
<path d="M5106 8618 c-3 -7 -7 -49 -10 -93 -3 -44 -9 -117 -12 -162 -6 -66 -4
-84 7 -88 8 -3 52 -6 99 -8 70 -2 85 1 85 13 0 11 -18 18 -65 25 -87 13 -89
15 -80 72 4 26 9 93 11 148 4 89 2 100 -14 103 -9 2 -19 -2 -21 -10z"/>
<path d="M4376 8590 c-44 -39 -60 -87 -53 -162 10 -113 61 -172 148 -171 43 1
56 6 80 30 35 35 52 103 25 103 -9 0 -24 -17 -33 -37 -34 -72 -98 -77 -144
-12 -19 27 -23 46 -24 110 0 68 3 80 24 103 37 40 81 36 119 -11 26 -32 32
-36 46 -24 14 12 14 16 -6 45 -33 47 -49 55 -100 56 -39 0 -54 -6 -82 -30z"/>
<path d="M5335 8590 c-10 -17 5 -30 33 -30 50 0 56 -11 43 -81 -40 -224 -42
-232 -29 -241 30 -19 35 -5 68 202 17 108 14 102 64 95 43 -7 61 1 48 22 -7
11 -151 43 -195 43 -14 0 -29 -4 -32 -10z"/>
<path d="M4120 8553 c0 -4 15 -82 34 -173 26 -129 37 -166 49 -168 33 -7 32 9
-26 288 -10 45 -16 56 -34 58 -13 2 -23 0 -23 -5z"/>
<path d="M5688 8523 c-3 -4 -15 -46 -27 -93 -13 -47 -27 -95 -32 -108 -5 -13
-9 -42 -9 -66 0 -52 32 -90 92 -108 56 -16 98 6 126 66 12 25 22 51 22 58 0 7
11 49 25 93 30 96 30 105 7 105 -15 0 -24 -20 -46 -102 -15 -57 -34 -118 -42
-136 -27 -62 -91 -66 -130 -7 -16 24 -15 30 6 108 12 45 26 93 31 107 16 47
15 84 -3 88 -9 2 -18 -1 -20 -5z"/>
<path d="M3823 8476 c-34 -11 -65 -24 -68 -28 -4 -4 5 -46 20 -95 15 -48 31
-101 36 -118 31 -105 37 -120 50 -120 21 0 23 39 4 95 -18 55 -16 65 17 73 13
2 30 7 38 11 11 5 31 -11 65 -54 34 -41 57 -60 73 -60 30 0 28 6 -16 59 -68
84 -65 77 -46 106 24 36 14 103 -21 132 -32 28 -69 28 -152 -1z m115 -32 c18
-12 22 -24 20 -52 -3 -32 -8 -40 -41 -55 -67 -31 -78 -28 -99 28 -9 27 -14 53
-10 57 8 8 81 36 97 37 6 1 21 -6 33 -15z"/>
<path d="M6050 8354 c-11 -26 -20 -49 -20 -51 0 -2 -11 -28 -24 -56 -13 -29
-29 -70 -37 -92 -7 -22 -17 -46 -22 -52 -9 -13 7 -43 22 -43 4 0 22 32 39 71
18 39 35 69 40 67 4 -3 22 -10 40 -17 32 -13 32 -13 32 -81 0 -76 13 -124 33
-117 8 3 12 30 12 88 0 82 1 84 25 87 61 9 92 78 63 139 -13 27 -31 42 -86 69
-39 19 -76 34 -83 34 -7 0 -22 -21 -34 -46z m93 -20 c46 -23 77 -54 77 -77 0
-28 -28 -57 -55 -57 -31 0 -95 28 -101 44 -5 13 31 106 41 106 3 0 20 -7 38
-16z"/>
<path d="M3469 8339 c-49 -29 -69 -66 -69 -131 0 -64 33 -139 79 -183 27 -25
39 -29 87 -29 52 0 59 3 89 36 26 28 39 35 59 31 14 -3 26 -3 26 1 0 9 -62
150 -70 159 -8 9 -120 -40 -120 -52 0 -4 5 -12 11 -18 9 -9 19 -8 41 3 36 19
58 5 58 -35 0 -47 -66 -99 -107 -84 -47 16 -98 94 -110 168 -7 42 18 89 56
105 26 10 35 9 71 -11 35 -20 43 -21 51 -9 7 11 1 22 -23 43 -39 33 -79 35
-129 6z"/>
<path d="M6417 8216 c-8 -11 -36 -61 -62 -111 -26 -49 -59 -110 -72 -134 -13
-24 -23 -45 -21 -46 7 -6 135 -81 161 -94 22 -12 30 -12 40 -2 14 14 -10 36
-81 72 -61 32 -68 43 -45 76 11 15 23 36 26 46 9 23 26 22 81 -9 42 -23 66
-25 66 -5 0 5 -25 24 -55 42 -30 18 -55 37 -55 41 0 5 12 26 26 48 l27 40 36
-22 c20 -12 48 -30 63 -40 35 -24 58 -23 58 2 0 11 -3 20 -7 20 -5 0 -45 22
-90 49 -82 48 -82 49 -96 27z"/>
<path d="M3122 8144 c-5 -9 -6 -32 -2 -53 12 -54 49 -231 58 -271 9 -42 42
-55 42 -17 0 13 -5 39 -11 56 -13 38 -8 45 59 82 l42 23 33 -32 c18 -18 40
-32 49 -32 39 0 26 25 -43 88 -40 37 -98 90 -129 119 -57 55 -83 64 -98 37z
m102 -102 c25 -24 46 -46 46 -50 0 -10 -69 -47 -75 -40 -6 6 -35 114 -35 129
0 17 15 7 64 -39z"/>
<path d="M4410 7884 c-69 -52 -213 -161 -320 -241 -186 -139 -220 -167 -220
-184 0 -5 39 -49 86 -99 48 -50 85 -92 83 -94 -3 -4 -101 76 -303 247 -70 60
-85 69 -97 61 -6 -3 -117 -92 -248 -197 -130 -105 -338 -274 -463 -374 -147
-119 -228 -190 -228 -202 0 -14 10 -19 48 -24 26 -3 70 -13 97 -23 75 -26 149
-23 214 10 30 16 75 34 100 42 45 13 47 13 81 -15 92 -74 175 -99 435 -131
178 -23 189 -25 219 -53 40 -37 67 -42 155 -27 150 25 136 27 194 -23 28 -26
84 -75 122 -111 61 -57 75 -65 109 -66 47 0 65 -20 66 -72 0 -40 1 -42 190
-208 58 -51 106 -94 108 -96 2 -1 -4 -17 -13 -35 -24 -46 -15 -127 24 -206 31
-64 55 -79 66 -43 4 11 5 76 3 144 l-3 123 33 37 c17 20 32 42 32 49 0 7 6 19
13 26 19 19 38 -97 44 -261 4 -127 3 -143 -22 -221 -39 -126 -33 -121 -172
-126 -166 -5 -213 -4 -250 4 -38 8 -173 -39 -173 -61 0 -22 30 -31 74 -23 65
13 434 11 442 -2 8 -13 84 -7 154 12 28 8 148 14 319 16 249 4 279 2 335 -15
109 -35 92 -35 651 -3 94 5 238 12 322 16 l152 6 -2 -27 c-2 -23 3 -29 33 -37
19 -5 82 -7 140 -5 87 3 110 7 135 25 44 31 209 44 434 33 76 -4 105 -2 108 7
6 18 -61 42 -147 54 -77 10 -129 23 -166 41 -15 7 -34 5 -69 -6 -79 -27 -192
-39 -313 -32 -130 8 -162 17 -162 46 0 23 -29 84 -67 141 -22 34 -23 42 -21
180 l3 144 28 -55 c32 -62 90 -130 112 -130 23 0 27 18 9 51 -32 64 -43 124
-43 242 1 94 4 117 15 117 8 0 14 -8 14 -19 0 -30 66 -153 105 -195 33 -35 38
-37 52 -23 12 12 13 21 5 48 -6 19 -14 68 -17 109 -3 41 -8 98 -11 126 l-5 51
65 38 c35 20 84 54 109 74 42 35 70 45 185 67 46 9 24 39 -83 112 -33 23 -116
82 -185 132 -69 50 -145 105 -170 122 -25 17 -48 36 -51 40 -3 5 1 42 9 83 17
87 10 150 -21 197 -37 54 -109 76 -174 53 -22 -7 -23 -5 -23 50 0 40 7 71 24
105 24 48 21 70 -11 70 -7 0 -13 6 -13 14 0 21 -19 30 -35 16 -10 -8 -19 -8
-34 -1 -11 6 -26 8 -35 5 -8 -3 -30 -6 -48 -7 -26 -2 -34 -7 -36 -25 -2 -12
-12 -27 -23 -32 -30 -17 -23 -37 26 -70 57 -39 75 -66 75 -112 0 -36 -1 -37
-26 -28 -14 6 -47 10 -73 10 -44 0 -57 7 -211 118 -91 64 -214 151 -275 193
-60 42 -171 118 -245 169 -144 99 -216 140 -247 140 -11 0 -47 -17 -80 -39
-85 -55 -91 -56 -166 -21 -49 24 -70 29 -84 22 -10 -6 -61 -44 -113 -86 -52
-42 -102 -76 -110 -76 -9 0 -72 48 -140 106 -69 58 -154 130 -189 160 -36 30
-72 54 -80 54 -9 -1 -72 -44 -141 -96z m2214 -453 l39 -18 1 -127 c1 -113 -4
-149 -20 -133 -3 2 -9 44 -14 92 -9 86 -10 90 -52 132 -41 43 -42 45 -24 59
24 17 22 17 70 -5z m-774 -21 c8 -14 18 -19 33 -15 13 3 31 -2 44 -12 l22 -18
-20 -43 c-23 -49 -19 -78 9 -67 30 12 36 10 40 -8 2 -9 -10 -34 -27 -56 -32
-40 -56 -120 -46 -152 9 -28 34 -23 47 9 7 15 25 46 41 70 38 57 71 58 122 1
l38 -42 -7 -76 c-5 -58 -1 -98 14 -166 20 -93 27 -205 11 -205 -19 0 -51 110
-62 215 -15 138 -24 155 -85 155 -45 0 -83 -13 -96 -34 -4 -6 -5 -47 -1 -91 5
-75 4 -83 -20 -119 -32 -47 -41 -90 -33 -159 5 -37 1 -74 -14 -131 -11 -44
-20 -91 -20 -106 0 -29 -34 -60 -65 -60 -20 0 -19 15 5 86 11 32 20 62 20 67
0 16 -21 5 -36 -19 -20 -30 -63 -211 -64 -267 0 -21 -5 -48 -11 -59 -8 -15 -8
-22 2 -28 22 -14 -9 -121 -64 -217 -74 -131 -79 -142 -73 -159 8 -22 26 -8 82
61 26 33 80 94 119 135 40 41 80 90 89 108 9 17 23 32 30 32 33 0 38 -27 34
-202 l-3 -173 -36 -65 -35 -64 -105 -3 c-57 -2 -125 -8 -151 -14 -39 -9 -60
-7 -132 11 -75 19 -94 21 -147 11 -34 -6 -65 -8 -69 -6 -4 3 -10 17 -14 32 -3
16 -12 57 -20 93 -8 36 -15 112 -17 170 l-4 105 43 3 c39 3 44 0 60 -28 29
-53 72 -110 82 -110 26 0 19 33 -18 87 -21 32 -49 87 -61 123 -13 36 -27 73
-32 82 -5 10 -12 50 -15 90 -8 95 -22 118 -74 118 -39 0 -39 0 -33 33 3 17 11
38 16 45 9 11 102 62 113 62 12 0 31 -118 40 -255 6 -96 48 -211 88 -244 14
-12 20 -10 41 13 13 14 33 26 44 26 11 0 40 9 65 20 48 20 60 12 30 -21 -17
-19 -12 -39 10 -39 7 0 23 15 36 32 22 30 25 47 32 188 21 400 22 401 43 416
12 9 30 12 44 9 72 -18 81 -18 81 1 -1 11 -5 39 -10 64 -6 25 -17 85 -26 134
-15 86 -15 89 3 115 11 14 37 35 59 46 48 25 49 42 5 72 -54 37 -84 31 -118
-22 -15 -24 -31 -44 -35 -45 -5 0 -8 35 -8 79 0 80 14 141 32 141 18 0 73 -38
101 -70 47 -52 54 -29 31 90 -3 19 -13 42 -21 51 -8 10 -12 26 -8 40 3 13 -1
43 -9 67 -14 39 -14 44 2 61 22 25 29 25 42 1z m-694 -5 c4 -8 -1 -30 -10 -49
-24 -51 -21 -57 26 -54 l41 3 13 -50 c7 -27 11 -51 9 -53 -2 -3 -20 9 -40 27
-41 36 -55 38 -79 12 -12 -13 -16 -32 -14 -62 3 -40 6 -44 31 -47 23 -3 27 -8
26 -35 -1 -42 -31 -130 -46 -134 -17 -6 -33 30 -44 100 -6 34 -17 81 -25 105
-8 24 -24 79 -35 124 l-21 80 23 16 c13 9 33 15 44 14 12 -2 32 2 45 7 36 14
50 13 56 -4z m-176 -175 c0 -36 -46 -113 -63 -107 -7 2 -13 26 -15 55 -3 47
-1 52 25 66 42 23 53 20 53 -14z m1851 -33 c19 -13 40 -38 46 -57 14 -38 10
-127 -9 -195 l-11 -40 -12 80 c-7 44 -17 92 -23 107 -15 37 -55 62 -87 54 -31
-8 -33 11 -4 48 25 32 55 33 100 3z m-2502 -13 c2 -2 -12 -4 -32 -4 -20 0 -39
5 -42 11 -5 7 5 8 32 3 21 -4 40 -8 42 -10z m2215 7 c45 -11 52 -17 61 -52 6
-24 3 -28 -29 -39 -84 -27 -116 -79 -116 -189 -1 -50 -6 -82 -15 -95 -20 -27
-23 -14 -32 130 -15 230 8 273 131 245z m236 -113 c21 -35 23 -93 3 -93 -6 0
-25 13 -43 28 -26 24 -31 34 -25 55 6 25 21 42 38 42 4 0 16 -15 27 -32z
m-1435 -52 c13 -13 29 -43 35 -67 6 -24 17 -64 24 -89 23 -77 29 -120 14 -115
-7 3 -20 20 -29 38 -9 18 -25 37 -36 42 -35 18 -53 37 -53 55 0 28 -39 70 -65
70 -38 0 -55 11 -55 34 0 42 19 52 103 55 28 1 44 -5 62 -23z m1259 14 c32
-12 33 -27 2 -51 -32 -25 -46 -71 -54 -176 -9 -108 -27 -122 -37 -27 -13 114
2 200 43 247 18 20 14 19 46 7z m-1564 -27 c0 -5 3 -18 6 -30 6 -20 3 -23 -24
-23 -24 0 -39 -10 -69 -45 -47 -55 -133 -203 -133 -227 0 -10 -4 -18 -9 -18
-16 0 -35 64 -34 115 2 94 46 156 120 170 20 3 53 20 72 36 33 27 71 39 71 22z
m1608 -116 c-11 -29 -27 -76 -36 -104 -8 -29 -19 -53 -23 -53 -12 0 -11 17 2
103 15 99 38 139 66 116 9 -8 8 -22 -9 -62z m112 7 c31 -71 37 -199 14 -273
-10 -34 -22 -61 -25 -61 -3 0 -9 26 -13 58 -4 31 -10 82 -14 112 -9 71 -3 210
9 210 5 0 19 -21 29 -46z m-1693 -106 c5 -7 20 -46 33 -86 18 -59 21 -85 16
-135 -4 -34 -11 -102 -17 -151 -5 -48 -16 -104 -25 -125 -25 -57 -32 -74 -45
-113 -17 -51 -29 -48 -29 8 0 25 -5 77 -12 116 -12 74 -11 81 34 196 11 28 23
52 27 52 4 0 14 13 24 29 17 28 16 32 -3 82 -12 29 -30 72 -41 96 -11 24 -17
48 -14 53 7 11 36 -1 52 -22z m613 3 c0 -20 -27 -48 -37 -37 -9 8 14 56 27 56
5 0 10 -8 10 -19z m1000 -36 c0 -30 -4 -55 -10 -55 -5 0 -10 25 -10 55 0 30 5
55 10 55 6 0 10 -25 10 -55z m-684 -66 c4 -25 -2 -51 -21 -93 -23 -50 -25 -62
-15 -89 14 -39 53 -324 52 -387 0 -60 -12 -112 -25 -107 -5 1 -32 68 -59 147
-54 160 -58 214 -24 313 13 35 15 63 10 107 -9 79 1 130 25 130 11 0 22 8 25
17 9 23 25 4 32 -38z m-976 -21 c11 -23 17 -45 13 -48 -5 -3 -41 -16 -81 -30
-106 -34 -127 -61 -136 -175 -7 -95 -17 -128 -32 -104 -12 20 -9 148 5 194 33
105 78 164 146 189 58 21 63 20 85 -26z m271 7 c48 -25 87 -103 59 -120 -5 -3
-27 7 -47 23 -21 16 -58 35 -83 42 -62 19 -70 28 -41 51 28 23 71 24 112 4z
m1369 -26 c9 -15 8 -24 -1 -35 -26 -32 -69 -1 -49 35 6 12 17 21 25 21 8 0 19
-9 25 -21z m-146 -5 c17 -44 8 -86 -42 -194 -24 -51 -26 -66 -26 -202 -1 -100
-5 -151 -13 -159 -21 -21 -27 36 -28 246 l0 201 40 62 c41 63 58 75 69 46z
m363 -16 c61 -67 120 -235 127 -363 2 -49 8 -111 12 -137 9 -66 -7 -61 -40 12
-18 39 -30 90 -36 146 -10 100 -31 140 -95 181 -60 37 -67 78 -28 156 16 33
33 34 60 5z m-797 -48 c20 -40 26 -70 13 -70 -14 0 -73 65 -73 80 0 45 35 39
60 -10z m553 -121 c22 -10 23 -15 23 -107 -1 -57 4 -106 11 -117 9 -16 8 -34
-1 -76 -22 -93 -66 -157 -66 -94 0 13 -7 50 -16 82 -8 32 -22 82 -30 111 -23
87 -14 140 34 195 18 20 15 20 45 6z m89 -86 l3 -78 39 -5 c68 -9 81 -50 77
-249 -1 -101 -17 -81 -31 38 -12 110 -27 142 -80 177 -37 25 -40 30 -40 73 0
61 11 121 21 121 4 0 9 -35 11 -77z m-641 11 c37 -113 59 -207 70 -303 12
-104 10 -122 -14 -103 -42 35 -82 162 -105 330 -14 98 -14 115 -1 123 23 14
33 5 50 -47z m-678 -38 c11 -142 -12 -228 -48 -180 -20 26 -20 182 -1 229 26
61 42 45 49 -49z m457 -122 c0 -40 -35 -175 -55 -213 -14 -28 -85 -104 -91
-98 -5 5 32 172 52 234 18 55 70 127 85 118 5 -4 9 -22 9 -41z m-731 -244 c6
-158 17 -293 26 -335 9 -38 18 -84 21 -101 l6 -31 -73 -6 c-41 -2 -75 -4 -77
-2 -1 1 9 42 23 90 21 74 25 108 25 220 0 74 -5 146 -11 162 -20 54 -16 153
10 221 13 35 27 59 31 55 4 -4 12 -127 19 -273z m-169 193 c-1 -69 -26 -128
-55 -128 -17 0 -20 8 -23 48 -2 38 3 58 23 93 37 63 55 59 55 -13z m1818 -557
c62 -102 60 -106 -43 -106 -100 0 -101 2 -52 88 l32 57 5 275 5 275 5 -260 5
-260 43 -69z m-213 429 c9 -49 22 -116 27 -148 8 -44 15 -57 27 -55 12 2 17
17 19 53 3 58 22 136 31 130 4 -2 5 -86 4 -186 l-4 -181 -37 -64 c-20 -35 -41
-64 -47 -64 -5 0 -26 10 -45 21 -39 24 -83 27 -156 10 -93 -21 -250 -51 -267
-51 -10 0 -17 8 -17 20 0 11 -8 34 -18 52 -30 55 -40 107 -47 249 -10 184 3
239 38 167 18 -38 152 -181 184 -197 27 -14 60 -14 68 -1 9 15 -40 95 -86 140
-21 21 -39 41 -39 46 0 24 70 106 106 126 59 31 70 22 77 -59 7 -79 14 -103
33 -103 22 0 46 62 61 158 6 37 39 59 60 39 6 -7 19 -52 28 -102z m-1685 -172
c0 -23 -4 -44 -9 -48 -13 -8 -25 58 -16 92 9 38 25 11 25 -44z m1113 -25 c4
-29 7 -78 7 -108 0 -59 21 -139 45 -177 17 -25 20 -59 6 -67 -8 -6 -161 13
-170 21 -2 1 11 31 30 65 32 61 33 67 37 200 4 127 6 137 22 128 11 -6 19 -27
23 -62z"/>
<path d="M3327 6453 c-3 -5 -15 -26 -27 -48 -13 -22 -30 -53 -40 -70 -29 -52
-9 -70 40 -35 l28 20 44 -22 c66 -35 170 -144 206 -219 17 -36 39 -102 47
-147 15 -80 15 -83 -5 -109 -11 -14 -20 -30 -20 -34 0 -5 49 -9 109 -9 l110 0
3 28 3 27 213 3 213 2 15 -35 c14 -35 34 -47 34 -22 0 18 29 43 60 52 35 11
37 17 29 92 -5 38 -8 136 -8 219 -1 141 -2 152 -20 157 -11 2 -21 15 -23 28
-4 33 -66 39 -107 10 -28 -20 -41 -21 -426 -21 -386 0 -398 1 -426 21 -28 19
-29 24 -23 70 5 41 4 49 -9 49 -9 0 -18 -3 -20 -7z"/>
<path d="M2825 6360 c-7 -21 12 -55 66 -119 19 -23 23 -24 108 -18 49 4 96 9
105 13 11 4 16 1 16 -10 0 -9 -12 -18 -27 -22 -119 -25 -226 -123 -272 -247
-24 -65 -29 -208 -10 -268 34 -107 109 -199 198 -243 65 -32 151 -50 208 -43
37 4 52 1 68 -13 17 -15 29 -16 80 -9 95 14 540 31 657 25 59 -3 114 -3 123 0
25 10 17 31 -21 53 -29 17 -52 21 -124 21 -49 0 -92 5 -95 10 -8 13 -84 13
-124 -1 -24 -8 -47 -8 -90 0 -49 10 -64 9 -97 -5 -68 -29 -208 -63 -218 -54
-6 6 17 33 57 70 48 44 75 80 97 126 32 65 43 76 54 49 4 -11 21 -15 59 -15
58 0 77 12 77 47 0 32 -34 46 -95 40 l-52 -5 -5 92 c-7 121 -43 201 -125 276
-74 67 -173 110 -257 110 -25 0 -25 0 -8 30 11 19 14 32 7 39 -13 13 -202 64
-321 87 -27 5 -33 3 -39 -16z m454 -438 c43 -41 58 -87 46 -149 -4 -25 -20
-50 -46 -75 -36 -35 -45 -38 -96 -38 -54 0 -58 2 -100 45 -41 43 -43 48 -43
105 0 58 2 62 45 105 42 42 48 45 99 45 50 0 59 -4 95 -38z"/>
<path d="M3120 5875 c-16 -17 -23 -36 -23 -65 0 -58 32 -90 89 -90 53 0 84 33
84 90 0 57 -31 90 -84 90 -32 0 -48 -6 -66 -25z"/>
<path d="M4232 5700 c-74 -45 -96 -151 -46 -217 66 -86 178 -82 234 9 57 94
-13 228 -120 228 -19 0 -50 -9 -68 -20z"/>
<path d="M2778 5489 c-9 -5 -61 -12 -115 -15 -370 -19 -422 -25 -546 -58 -32
-9 -71 -16 -87 -16 -17 0 -30 -4 -30 -9 0 -5 163 -9 378 -9 207 0 379 -1 382
-1 30 -7 206 -11 243 -6 58 8 51 23 -21 50 -26 9 -75 30 -110 46 -70 32 -70
32 -94 18z"/>
<path d="M1512 5228 c-8 -8 -12 -49 -12 -120 0 -103 1 -108 23 -113 12 -3
1523 -4 3357 -3 l3335 3 0 120 0 120 -3345 3 c-2594 1 -3349 -1 -3358 -10z"/>
<path d="M5318 4853 c0 -4 -2 -12 -3 -18 -2 -5 -3 -16 -4 -22 0 -7 -13 -13
-28 -13 -31 0 -110 -22 -142 -40 -32 -17 -26 -40 9 -40 30 0 41 -15 18 -23
-10 -3 -13 -46 -13 -169 0 -175 6 -198 48 -198 18 0 19 -4 13 -62 -3 -35 -10
-112 -16 -173 -5 -60 -13 -130 -18 -155 l-8 -45 -94 0 -95 0 -3 93 -3 92 -169
0 -169 0 -3 -137 -3 -138 -38 -3 c-32 -3 -38 0 -47 23 -6 14 -10 44 -10 65 0
22 -4 61 -9 87 -5 26 -15 95 -21 153 -7 58 -16 128 -21 157 -6 28 -11 84 -13
124 -2 68 -4 74 -27 79 -19 5 -23 12 -21 31 2 13 6 52 9 85 4 58 3 63 -23 83
-14 11 -33 21 -40 21 -8 0 -26 14 -41 30 -32 36 -57 38 -126 6 -61 -27 -117
-39 -141 -30 -10 4 -22 18 -27 32 -8 21 -14 24 -43 19 -18 -3 -52 -14 -75 -25
-74 -36 -141 -40 -141 -8 0 7 -9 21 -20 31 -27 24 -107 24 -143 0 -14 -9 -52
-23 -83 -30 -53 -12 -62 -12 -112 7 -56 21 -64 21 -174 -8 -75 -20 -85 -35
-38 -59 40 -21 82 -19 113 5 34 27 48 25 82 -10 38 -40 67 -38 145 10 76 47
106 49 159 14 34 -22 45 -24 89 -18 43 5 57 3 89 -16 36 -21 48 -22 243 -22
210 0 230 -3 230 -40 0 -10 7 -30 16 -43 21 -32 15 -58 -15 -65 -28 -6 -41
-30 -17 -30 9 0 16 -4 16 -10 0 -5 -7 -10 -15 -10 -8 0 -15 -1 -15 -2 -2 -15
-22 -393 -29 -527 -6 -113 -13 -176 -21 -181 -6 -4 -22 -5 -34 -3 -23 5 -23 6
-30 218 -3 117 -4 232 0 254 l7 41 -82 0 c-71 0 -81 -2 -81 -18 0 -10 5 -23
10 -28 7 -7 9 -110 8 -290 l-3 -279 -22 -3 c-13 -2 -46 13 -82 37 -33 23 -67
41 -75 41 -8 0 -45 -18 -84 -40 -38 -22 -77 -40 -86 -40 -10 0 -37 13 -61 30
-24 16 -51 30 -60 30 -8 0 -50 -16 -91 -36 -41 -19 -81 -33 -89 -30 -7 2 -43
23 -80 45 -37 23 -72 41 -77 41 -6 0 -27 -13 -47 -29 -20 -16 -58 -43 -85 -60
-47 -29 -55 -31 -151 -31 -104 0 -125 7 -125 42 0 26 -36 23 -43 -4 -4 -15 1
-30 14 -44 14 -15 19 -32 17 -55 l-3 -34 -67 -3 -67 -3 -56 -93 c-30 -51 -55
-105 -55 -119 l0 -27 2368 2 2367 3 0 100 0 100 -80 5 -80 5 -5 60 -5 60 -40
5 -40 5 3 62 c2 34 1 71 -2 81 -4 11 -35 39 -70 61 l-63 42 -7 122 c-4 67 -12
200 -18 295 l-11 172 -58 0 c-64 0 -63 1 -74 -80 -16 -117 -29 -179 -37 -174
-4 3 -8 76 -8 163 0 126 3 161 15 171 23 19 48 8 57 -28 7 -27 13 -32 38 -32
33 0 70 40 70 76 0 40 -25 54 -96 54 -60 0 -65 2 -74 25 -10 25 -11 26 -112
23 -102 -3 -103 -3 -103 -28 0 -24 3 -25 80 -30 84 -6 84 -17 0 -22 l-50 -3
-6 -165 c-14 -378 -20 -451 -38 -448 -13 3 -17 21 -22 98 -15 210 -29 383 -35
405 -3 13 -1 26 5 29 21 13 11 35 -16 38 -26 3 -28 6 -26 43 5 94 -19 110
-153 101 -106 -7 -168 -9 -209 -6 -16 1 -57 -3 -90 -10 -33 -6 -89 -13 -125
-14 -87 -3 -130 -14 -130 -33 0 -13 12 -15 79 -11 56 3 84 1 97 -9 10 -7 41
-13 70 -13 28 0 65 -7 80 -15 49 -26 96 -19 145 20 49 38 83 44 129 20 36 -19
39 -49 8 -75 -17 -13 -20 -21 -12 -31 10 -14 1 -362 -11 -456 -6 -42 -7 -43
-46 -43 l-39 0 0 70 0 69 -87 3 -88 3 -3 68 c-3 64 -4 67 -28 67 -25 0 -26 2
-22 57 2 49 0 58 -14 61 -16 3 -18 -5 -18 -57 l0 -60 -32 -3 c-33 -3 -33 -3
-38 -68 l-5 -65 -64 -5 -64 -5 -1 -100 -1 -100 -85 0 -85 0 -11 40 c-13 46
-75 364 -74 383 0 6 6 12 13 12 8 0 21 8 30 18 14 15 16 47 17 202 0 102 1
193 0 202 0 26 -38 42 -110 48 -61 5 -65 6 -65 30 0 21 -6 26 -33 28 -17 2
-33 0 -34 -5z m116 -531 c2 -4 -8 -30 -23 -57 -22 -40 -33 -51 -56 -53 -16 -2
-34 -11 -41 -19 -16 -22 -44 -9 -44 20 0 13 3 45 6 71 l7 46 73 0 c40 0 75 -3
78 -8z m22 -96 c7 -31 -1 -46 -27 -46 -22 0 -23 8 -9 44 12 33 28 33 36 2z
m-118 -89 c2 -10 -2 -25 -9 -33 -10 -13 -16 -11 -40 12 -34 32 -29 46 14 42
21 -2 33 -9 35 -21z m127 14 c5 -10 -39 -61 -54 -61 -13 0 -34 47 -27 59 9 13
73 15 81 2z m-81 -66 c6 -18 -2 -45 -15 -45 -16 0 -29 36 -17 48 16 16 25 15
32 -3z m105 -42 c7 -32 15 -66 18 -77 10 -35 -18 -12 -47 40 -27 47 -28 52
-14 72 8 12 19 22 23 22 4 0 13 -26 20 -57z m-199 32 c14 -17 1 -72 -26 -109
-21 -30 -24 -16 -12 57 11 70 17 77 38 52z m151 -87 c14 -26 -4 -22 -30 6 -14
15 -20 30 -16 37 8 12 23 -2 46 -43z m-101 27 c0 -8 -2 -15 -4 -15 -2 0 -12
-3 -21 -6 -15 -6 -15 -4 -4 15 16 25 29 27 29 6z m119 -112 c1 -10 -23 -13
-87 -13 -49 0 -92 3 -96 7 -3 4 15 28 41 55 l47 47 47 -42 c26 -23 47 -48 48
-54z"/>
<path d="M6485 4843 c-22 -9 -83 -19 -135 -24 -52 -4 -118 -11 -146 -15 -44
-5 -56 -3 -83 16 -29 22 -33 23 -88 10 -32 -7 -76 -21 -97 -32 -28 -14 -48
-18 -70 -13 -37 8 -87 8 -181 -2 -57 -7 -70 -12 -73 -27 -7 -33 14 -39 155
-41 118 -1 143 1 175 17 34 18 39 18 67 4 40 -21 79 -20 175 4 100 25 137 25
189 -1 89 -46 134 -43 192 12 35 33 71 38 79 12 3 -10 1 -36 -4 -58 -13 -57
-12 -65 9 -65 30 0 71 72 71 124 0 51 -9 59 -77 71 -24 4 -45 11 -49 16 -8 14
-64 10 -109 -8z"/>
<path d="M3400 4508 c0 -63 110 -100 150 -50 22 27 45 28 62 3 22 -31 97 -61
155 -61 29 0 62 -5 72 -12 27 -17 51 -3 68 42 9 22 21 40 28 40 15 0 45 -32
45 -48 0 -6 12 -19 26 -28 24 -16 27 -16 54 -1 49 29 60 23 60 -32 0 -56 19
-82 45 -61 10 9 15 31 15 72 0 80 -26 108 -100 108 -29 0 -61 7 -74 15 -15 10
-47 15 -92 15 -38 0 -132 2 -209 4 -84 3 -159 0 -187 -6 -38 -9 -53 -9 -75 2
-15 8 -31 16 -35 18 -5 2 -8 -7 -8 -20z"/>
<path d="M3270 4277 c-30 -13 -75 -36 -100 -52 -42 -27 -54 -30 -197 -39 -106
-6 -153 -13 -153 -21 0 -8 53 -14 187 -18 l186 -7 34 26 c29 22 38 24 64 15
16 -5 36 -8 44 -5 8 3 28 -4 45 -16 45 -32 60 -21 60 43 0 95 -58 120 -170 74z"/>
<path d="M3379 4103 c0 -5 -2 -44 -3 -88 -1 -44 -6 -132 -11 -195 -6 -99 -5
-121 9 -148 14 -26 22 -32 51 -32 70 0 88 63 65 232 -5 40 -11 105 -13 144 -2
38 -7 75 -11 82 -8 13 -85 17 -87 5z"/>
<path d="M3537 3877 c-8 -21 8 -39 29 -35 27 5 25 42 -2 46 -12 2 -24 -3 -27
-11z"/>
<path d="M4210 3056 c-30 -13 -112 -50 -182 -84 -110 -53 -128 -65 -128 -85 0
-29 18 -47 46 -47 12 0 82 20 155 45 74 25 137 45 142 45 9 0 8 -104 -2 -158
-5 -24 -17 -49 -27 -57 -11 -8 -80 -45 -154 -82 -157 -80 -197 -110 -206 -160
-24 -129 190 -217 511 -208 163 4 229 16 313 58 52 25 79 57 88 103 9 48 -10
88 -65 133 -46 39 -189 131 -223 144 -10 3 -27 21 -38 39 -17 28 -20 51 -20
146 0 124 -9 151 -61 178 -38 19 -84 16 -149 -10z m145 -41 c24 -23 25 -31 25
-133 0 -134 13 -171 73 -209 137 -86 207 -134 207 -143 0 -12 -682 -14 -694
-3 -4 4 12 17 36 28 140 68 245 130 262 152 15 20 18 45 20 138 1 78 -3 118
-11 126 -10 10 -29 7 -90 -14 -84 -29 -103 -32 -103 -17 0 19 182 99 228 100
13 0 34 -11 47 -25z m279 -534 c33 -36 -4 -82 -53 -66 -44 14 -27 85 19 85 9
0 25 -9 34 -19z"/>
<path d="M5154 3067 c-45 -7 -89 -18 -98 -26 -14 -12 -16 -51 -16 -361 0 -281
3 -350 14 -359 9 -8 153 -10 517 -9 l504 3 3 359 c1 228 -1 363 -8 371 -16 19
-253 39 -361 30 -105 -8 -144 -9 -339 -2 -77 3 -170 0 -216 -6z m359 -43 l27
-6 0 -325 c0 -179 -3 -323 -7 -321 -87 45 -181 61 -281 49 -44 -5 -65 -4 -68
3 -2 6 -3 144 -2 306 l3 295 50 7 c54 7 233 2 278 -8z m425 2 c5 -5 3 -596 -2
-605 -3 -4 -31 -4 -63 0 -80 11 -168 1 -232 -27 -29 -13 -55 -24 -57 -24 -2 0
-4 146 -4 324 l0 325 48 6 c26 3 54 8 62 10 16 4 242 -4 248 -9z m-798 -31 c0
-14 -4 -25 -9 -25 -10 0 -21 36 -13 44 12 13 22 5 22 -19z m0 -96 c0 -11 -4
-17 -10 -14 -5 3 -10 13 -10 21 0 8 5 14 10 14 6 0 10 -9 10 -21z m0 -354 c0
-135 -1 -145 -20 -155 -11 -6 -25 -8 -30 -5 -6 4 -10 57 -10 122 0 100 3 120
21 149 11 19 25 34 30 34 5 0 9 -63 9 -145z m863 118 c7 -35 -3 -94 -14 -87
-12 7 -12 114 0 114 5 0 11 -12 14 -27z m-624 -283 c35 -5 69 -14 74 -19 8 -8
-33 -11 -138 -11 -118 0 -146 3 -137 12 7 7 36 15 65 19 28 3 57 7 62 7 6 1
39 -3 74 -8z m500 0 c35 -5 69 -14 74 -19 8 -8 -33 -11 -138 -11 -116 0 -146
3 -137 12 10 10 65 22 122 26 8 1 44 -3 79 -8z"/>
<path d="M6066 2118 c-2 -13 -9 -52 -15 -87 -6 -36 -14 -68 -18 -72 -4 -4 -35
17 -68 47 -57 51 -105 70 -105 42 0 -7 38 -44 85 -82 77 -63 86 -74 107 -133
23 -66 40 -85 60 -65 8 8 4 27 -13 69 -26 64 -27 107 -5 220 7 40 11 75 8 78
-13 12 -32 3 -36 -17z"/>
<path d="M3690 2098 c-57 -140 -111 -292 -106 -303 11 -30 34 -14 54 38 11 28
39 100 62 159 23 59 39 112 35 118 -11 17 -35 11 -45 -12z"/>
<path d="M3859 2032 c-16 -40 -89 -295 -89 -310 0 -8 8 -12 17 -10 13 2 27 36
53 127 19 69 40 126 45 128 6 2 17 -29 24 -69 22 -123 52 -232 66 -247 18 -19
41 -1 48 37 3 15 11 50 19 77 51 173 59 208 50 217 -16 16 -28 2 -42 -49 -6
-27 -15 -59 -20 -73 -4 -14 -13 -44 -19 -67 -7 -24 -15 -43 -20 -43 -7 0 -12
16 -52 191 -18 82 -25 99 -46 108 -21 10 -25 8 -34 -17z"/>
<path d="M5626 1984 c-49 -13 -70 -30 -59 -47 4 -7 27 -92 73 -275 10 -41 15
-46 35 -38 13 4 14 14 9 43 -4 21 -11 46 -15 55 -18 33 -10 56 22 67 51 18 62
13 107 -50 27 -37 51 -59 63 -59 29 0 24 16 -26 82 -43 58 -45 62 -30 84 8 13
15 43 15 67 0 82 -65 106 -194 71z m138 -46 c22 -31 20 -51 -6 -75 -25 -23
-96 -49 -106 -39 -9 9 -32 78 -32 97 0 18 47 36 97 38 22 1 37 -6 47 -21z"/>
<path d="M4206 1848 c-40 -246 -40 -240 -25 -249 21 -13 115 -22 156 -16 72
12 123 88 123 184 0 67 -30 126 -74 147 -26 12 -130 36 -157 36 -3 0 -14 -46
-23 -102z m159 28 c14 -9 32 -33 41 -54 32 -77 -27 -202 -96 -202 -15 0 -42 3
-59 6 -34 7 -39 27 -22 94 5 19 14 68 21 109 l12 73 39 -5 c22 -3 51 -12 64
-21z"/>
<path d="M5346 1924 c-82 -14 -103 -24 -91 -44 5 -8 22 -10 51 -5 l43 6 6 -38
c3 -21 10 -60 15 -88 5 -27 12 -75 16 -106 7 -67 16 -84 39 -75 19 7 18 19 -5
156 -5 30 -12 78 -16 107 -7 56 -9 55 61 65 11 2 20 10 20 18 0 20 -41 21
-139 4z"/>
<path d="M4595 1891 c-3 -6 -8 -74 -12 -153 -5 -137 -4 -144 16 -170 43 -53
141 -58 185 -9 18 20 35 148 36 264 0 50 -2 58 -17 55 -16 -3 -19 -20 -25
-131 -7 -135 -18 -169 -58 -182 -12 -4 -34 -1 -50 5 -43 18 -51 55 -41 185 7
104 2 145 -19 145 -5 0 -11 -4 -15 -9z"/>
<path d="M4999 1885 c-34 -18 -59 -57 -59 -91 0 -43 55 -87 128 -102 61 -13
82 -29 82 -66 0 -30 -38 -56 -81 -56 -34 0 -46 6 -71 34 -30 34 -58 38 -58 10
0 -7 13 -28 28 -45 24 -27 37 -33 84 -37 92 -7 148 33 148 106 0 51 -67 102
-135 102 -30 0 -75 37 -75 60 0 27 39 60 71 60 17 0 39 -11 58 -31 31 -31 61
-34 61 -6 0 15 -34 49 -67 66 -29 15 -82 13 -114 -4z"/>
<path d="M6867 8788 c-67 -107 -105 -178 -111 -205 -22 -99 138 -200 208 -130
12 12 40 52 61 87 77 132 77 132 63 141 -24 16 -25 15 -89 -98 -65 -114 -88
-129 -148 -97 -49 26 -61 63 -34 111 26 50 55 100 81 143 27 43 27 47 2 60
-16 8 -22 6 -33 -12z"/>
<path d="M2765 8757 c-83 -47 -107 -131 -64 -223 31 -66 73 -94 140 -94 149 0
209 155 109 283 -47 59 -117 72 -185 34z m129 -60 c92 -92 68 -217 -43 -217
-66 0 -146 120 -122 182 13 34 68 78 97 78 16 0 40 -16 68 -43z"/>
<path d="M7118 8474 c-46 -63 -87 -122 -93 -130 -7 -10 -6 -17 5 -24 20 -12
38 6 111 112 34 49 65 86 69 81 4 -4 3 -78 -1 -163 -9 -145 -8 -156 10 -173
23 -23 16 -30 126 123 73 103 89 140 61 140 -13 0 -78 -82 -129 -163 -10 -15
-21 -26 -25 -23 -4 2 -3 71 1 152 9 146 8 149 -13 166 -12 10 -26 18 -30 18
-5 0 -46 -52 -92 -116z"/>
<path d="M2272 8388 c-18 -18 -15 -29 24 -78 20 -25 61 -78 91 -117 30 -40 59
-73 64 -73 12 0 169 132 169 142 0 5 -7 11 -15 15 -10 3 -38 -14 -77 -48 l-61
-53 -24 30 c-13 16 -51 66 -86 111 -34 46 -64 83 -67 83 -4 0 -11 -5 -18 -12z"/>
<path d="M7470 8348 c0 -7 17 -26 37 -44 l36 -32 -22 -28 c-13 -16 -48 -58
-79 -93 -86 -97 -88 -100 -68 -119 16 -16 21 -13 72 43 30 33 69 79 87 102 37
49 54 53 87 18 25 -27 60 -34 60 -12 0 7 -40 50 -89 95 -84 77 -121 98 -121
70z"/>
<path d="M2072 8199 c-15 -23 -19 -10 68 -232 35 -88 45 -105 56 -96 18 15 18
33 -3 76 l-16 35 52 51 51 52 41 -22 c31 -17 46 -20 60 -12 10 5 19 14 19 18
0 10 -282 151 -302 151 -7 0 -19 -9 -26 -21z m99 -62 c75 -38 74 -36 38 -73
-18 -19 -36 -34 -40 -34 -5 0 -20 30 -56 118 -7 18 8 15 58 -11z"/>
<path d="M7696 8152 c-2 -4 -7 -25 -11 -47 -22 -139 -29 -157 -78 -207 -40
-40 -46 -52 -37 -64 19 -22 29 -18 86 36 41 39 60 50 85 50 58 0 159 23 159
36 0 21 -32 24 -113 10 -43 -7 -80 -9 -83 -5 -3 5 0 26 5 46 23 89 28 121 19
137 -10 17 -24 21 -32 8z"/>
<path d="M1854 7969 c-38 -44 -70 -86 -72 -93 -3 -14 205 -216 222 -216 16 0
156 166 156 185 0 30 -26 13 -83 -55 -33 -39 -62 -70 -65 -70 -4 0 -24 16 -45
35 l-38 35 19 28 c11 15 32 38 46 51 27 25 33 46 16 56 -8 5 -40 -25 -88 -85
l-20 -25 -31 29 c-17 17 -31 35 -31 41 0 6 25 40 55 75 30 36 55 71 55 78 0
29 -31 7 -96 -69z"/>
<path d="M1664 7721 c-91 -56 -121 -185 -51 -219 37 -18 67 -7 133 49 62 52
97 60 117 28 28 -44 -45 -139 -106 -139 -23 0 -37 -6 -41 -17 -20 -52 79 -39
134 19 47 47 75 123 61 161 -11 29 -47 57 -74 57 -20 0 -80 -39 -137 -89 -41
-36 -54 -38 -73 -10 -29 41 16 116 75 125 35 6 54 26 42 45 -9 15 -47 10 -80
-10z"/>
<path d="M8152 7601 c-11 -7 -9 -17 12 -49 14 -23 23 -47 21 -54 -3 -7 -38
-34 -78 -61 -39 -26 -88 -60 -107 -77 -33 -27 -34 -30 -18 -46 15 -15 21 -13
95 37 43 30 80 56 83 59 10 11 55 40 62 40 4 0 20 -18 34 -40 26 -39 50 -48
48 -18 -1 13 -130 218 -136 218 -2 0 -9 -4 -16 -9z"/>
<path d="M1367 7288 c-9 -18 -34 -66 -57 -105 -22 -40 -40 -80 -40 -88 0 -29
30 -14 50 25 11 22 25 40 30 40 11 0 74 -34 112 -61 14 -11 29 -19 32 -19 4 0
25 -12 47 -27 40 -26 42 -27 55 -8 8 10 14 22 14 25 0 3 -42 30 -92 59 -51 28
-104 61 -118 71 l-25 19 23 43 c27 52 27 58 4 58 -11 0 -25 -14 -35 -32z"/>
<path d="M8325 7307 c-11 -7 -39 -24 -62 -39 -23 -16 -44 -28 -47 -28 -11 0
-137 -83 -134 -89 21 -45 112 -202 120 -207 5 -3 14 -2 20 4 6 6 -7 38 -36 92
-25 45 -46 85 -46 89 0 12 72 52 87 49 8 -2 29 -29 46 -60 29 -55 57 -76 57
-43 0 8 -13 39 -30 68 -16 30 -30 58 -30 63 0 14 59 47 74 41 7 -3 32 -39 55
-81 23 -42 46 -76 51 -76 21 0 19 23 -8 72 -16 29 -42 77 -58 106 -30 57 -30
56 -59 39z"/>
<path d="M8374 6946 c-72 -35 -134 -68 -138 -74 -3 -5 0 -15 8 -21 10 -9 36 0
115 39 55 27 105 50 111 50 15 0 12 -19 -8 -48 -11 -15 -45 -73 -76 -129 -58
-103 -66 -144 -28 -142 26 1 265 122 270 136 9 29 -30 21 -122 -22 -54 -26
-100 -44 -103 -42 -4 5 76 152 127 234 15 23 5 74 -15 79 -5 2 -69 -26 -141
-60z"/>
<path d="M1188 6936 c-10 -23 -3 -33 83 -131 52 -59 100 -115 108 -126 7 -10
20 -19 27 -19 24 0 15 41 -16 77 -28 31 -29 36 -16 61 7 15 21 44 31 65 17 37
19 38 67 36 34 -2 52 2 58 12 5 7 6 17 2 21 -7 7 -232 28 -299 28 -26 0 -36
-6 -45 -24z m188 -39 c7 -7 -34 -87 -45 -87 -10 0 -91 86 -91 96 0 8 128 -1
136 -9z"/>
<path d="M1081 6678 c-12 -35 -31 -85 -41 -112 -11 -26 -18 -52 -15 -56 3 -4
31 -18 62 -30 32 -12 67 -25 78 -30 11 -4 31 -12 45 -18 14 -6 42 -16 63 -24
43 -14 49 -9 66 47 5 17 21 61 35 100 17 45 22 73 16 79 -16 16 -28 -4 -59
-90 -16 -43 -35 -80 -43 -82 -21 -4 -88 27 -88 41 0 7 9 37 20 67 24 64 25 80
7 80 -8 0 -26 -32 -41 -70 -30 -76 -37 -79 -93 -44 l-22 14 30 80 c32 90 35
110 15 110 -7 0 -23 -27 -35 -62z"/>
<path d="M8635 6610 c-11 -4 -46 -18 -77 -29 -135 -49 -168 -64 -168 -77 0
-20 20 -27 43 -16 12 5 38 15 57 22 19 7 44 16 55 20 64 26 86 32 92 27 3 -4
-21 -44 -54 -89 -167 -232 -166 -245 12 -183 147 51 177 64 172 78 -6 19 -56
12 -144 -21 -47 -17 -83 -26 -83 -20 0 6 31 54 69 107 98 138 97 135 83 165
-12 27 -24 30 -57 16z"/>
<path d="M986 6347 c-24 -31 -53 -116 -63 -184 -5 -29 -2 -33 23 -39 29 -6
172 -47 229 -65 24 -8 32 -6 42 7 17 24 9 32 -52 50 -30 8 -57 19 -59 23 -3 4
1 27 8 52 14 47 35 60 118 74 23 4 42 14 49 26 15 30 5 34 -52 21 -67 -16 -99
-15 -99 2 0 7 -9 25 -21 40 -16 20 -29 26 -59 26 -32 0 -43 -6 -64 -33z m85
-27 c13 -8 19 -21 19 -48 0 -42 -17 -109 -29 -116 -9 -6 -82 12 -93 22 -11 10
30 125 49 140 20 15 29 15 54 2z"/>
<path d="M8768 6214 c-3 -3 -61 -19 -129 -35 -68 -17 -128 -34 -133 -39 -4 -4
-4 -23 2 -42 6 -18 18 -68 28 -111 14 -70 33 -101 50 -85 2 3 -5 47 -16 98
-11 51 -17 97 -13 101 4 4 27 12 51 17 41 10 44 9 53 -16 6 -14 15 -48 20 -74
7 -30 16 -48 25 -48 17 0 17 19 -1 93 l-14 59 36 14 c19 9 41 13 48 10 7 -2
20 -40 30 -83 23 -105 22 -103 41 -103 18 0 18 0 -14 145 -9 44 -21 86 -25 93
-8 12 -29 16 -39 6z"/>
<path d="M907 5967 c-83 -78 -66 -221 33 -272 42 -22 128 -19 168 5 47 29 76
97 69 164 -3 37 -1 56 10 68 22 24 10 35 -49 42 -29 4 -63 9 -74 12 -19 5 -23
0 -33 -46 -15 -70 -14 -100 4 -100 14 0 20 14 27 65 4 27 33 30 57 6 29 -29
29 -108 0 -140 -49 -53 -137 -51 -196 5 -33 31 -35 37 -30 79 5 46 29 85 52
85 19 0 36 26 29 44 -9 24 -29 19 -67 -17z"/>
<path d="M8773 5865 c-26 -18 -39 -58 -48 -145 -6 -60 -25 -100 -47 -100 -5 0
-20 12 -33 26 -32 35 -35 116 -5 154 25 32 26 60 2 60 -11 0 -27 -16 -40 -39
-39 -68 -23 -181 31 -227 73 -61 136 -1 137 131 0 55 20 90 50 90 47 0 68 -99
31 -146 -14 -19 -16 -30 -9 -49 l9 -25 24 29 c49 61 44 164 -10 221 -35 38
-59 43 -92 20z"/>
<path d="M8673 5485 c-38 -42 -53 -82 -53 -139 0 -108 66 -180 128 -140 28 19
47 61 63 141 7 37 20 69 31 80 19 17 21 17 44 -10 33 -39 33 -95 -2 -136 -26
-32 -26 -61 0 -61 20 0 52 47 59 88 24 125 -69 231 -138 156 -16 -18 -27 -47
-35 -97 -14 -82 -32 -117 -60 -117 -54 0 -72 129 -24 176 14 15 24 35 22 47
-4 25 -19 31 -35 12z"/>
<path d="M807 5423 c-10 -16 -11 -237 -1 -239 27 -8 290 -22 296 -16 4 4 10
62 14 130 7 120 6 122 -14 122 -20 0 -21 -6 -24 -97 l-3 -98 -55 0 -55 0 0 75
c0 60 -3 75 -15 75 -12 0 -16 -17 -20 -75 l-5 -75 -40 4 c-22 1 -44 5 -48 8
-4 3 -7 46 -5 95 2 63 -1 92 -9 95 -6 2 -13 0 -16 -4z"/>
<path d="M8628 4988 c-3 -126 -2 -138 18 -138 11 0 14 19 14 84 0 114 1 116
66 116 l54 0 0 -75 c0 -58 3 -75 14 -75 10 0 16 20 21 76 l7 75 42 -3 41 -3 5
-100 c3 -57 9 -100 15 -100 12 0 28 177 20 223 l-6 32 -154 0 -154 0 -3 -112z"/>
<path d="M868 5053 c-38 -2 -69 -8 -69 -13 -6 -33 -2 -35 61 -40 l65 -5 3 -87
4 -87 -64 -3 c-60 -3 -63 -4 -63 -28 0 -28 -17 -27 188 -15 123 7 128 8 125
29 -3 19 -8 21 -70 18 -36 -2 -68 1 -71 5 -3 4 -8 45 -12 89 l-7 82 74 8 c65
8 73 11 76 32 3 21 1 22 -85 20 -48 -1 -118 -3 -155 -5z"/>
<path d="M8616 4750 c-3 -18 -9 -78 -13 -133 -5 -83 -4 -99 8 -95 15 5 24 44
34 141 l7 58 51 -3 52 -3 -3 -77 c-3 -63 -1 -78 11 -78 10 0 18 21 25 71 6 39
13 73 16 76 2 3 23 2 46 -2 l42 -7 -7 -77 c-4 -42 -9 -84 -11 -94 -5 -15 20
-36 31 -25 9 9 26 231 18 238 -7 8 -46 13 -249 37 l-51 5 -7 -32z"/>
<path d="M827 4684 c-10 -10 -7 -87 6 -179 10 -65 16 -80 31 -83 17 -4 18 1
12 47 -8 63 -7 64 149 83 92 11 110 16 113 32 2 10 0 22 -5 26 -7 6 -122 -6
-229 -25 l-41 -7 -5 47 c-6 47 -18 71 -31 59z"/>
<path d="M5288 1197 c-53 -44 -62 -100 -28 -168 31 -59 94 -77 142 -39 29 22
38 18 38 -17 0 -76 -78 -121 -117 -67 -13 17 -24 23 -36 18 -23 -8 -22 -17 9
-53 21 -25 33 -31 65 -31 47 0 84 22 105 61 19 38 18 163 -2 222 -30 89 -115
125 -176 74z m109 -39 c28 -26 32 -92 6 -120 -20 -23 -76 -24 -94 -1 -21 24
-18 97 5 122 24 27 54 27 83 -1z"/>
<path d="M4468 1154 c-32 -25 -58 -50 -58 -55 0 -19 29 -20 55 -3 14 9 28 14
32 11 3 -4 1 -46 -6 -95 -6 -49 -11 -109 -11 -135 0 -39 3 -47 19 -47 16 0 20
13 29 93 6 50 14 127 16 169 3 42 7 83 8 89 6 27 -30 16 -84 -27z"/>
<path d="M5057 1190 c-48 -4 -93 -12 -99 -18 -21 -21 4 -32 78 -32 41 0 74 -3
74 -6 0 -3 -10 -24 -23 -47 -58 -107 -87 -272 -47 -272 10 0 19 19 27 60 21
98 34 136 76 217 38 73 43 110 15 107 -7 -1 -53 -5 -101 -9z"/>
<path d="M4674 1177 c-11 -29 6 -37 82 -37 41 0 74 -3 74 -7 0 -3 -14 -28 -30
-54 -53 -82 -99 -239 -76 -258 18 -15 30 0 44 54 20 80 53 156 94 217 53 79
51 88 -19 88 -32 0 -82 3 -110 6 -43 6 -54 4 -59 -9z"/>
<path d="M5620 1043 c-43 -5 -57 -17 -42 -36 8 -9 25 -12 54 -8 34 5 43 10 43
25 0 22 -6 24 -55 19z"/>
<path d="M4320 1021 c0 -13 10 -20 31 -25 53 -10 69 -7 69 13 0 22 -19 31 -66
31 -27 0 -34 -4 -34 -19z"/>
</g>
</svg>
